<svg xmlns="http://www.w3.org/2000/svg" viewBox="0 0 1200 650" width="1200" height="650">
  <defs>
    <linearGradient id="bg" x1="0%" y1="0%" x2="100%" y2="100%">
      <stop offset="0%" stop-color="#0b0f19" />
      <stop offset="100%" stop-color="#111827" />
    </linearGradient>
    <linearGradient id="boxBg" x1="0%" y1="0%" x2="0%" y2="100%">
      <stop offset="0%" stop-color="#1e293b" />
      <stop offset="100%" stop-color="#0f172a" />
    </linearGradient>
    <filter id="shadow" x="-5%" y="-5%" width="110%" height="110%">
      <feDropShadow dx="0" dy="4" stdDeviation="6" flood-color="#000000" flood-opacity="0.5"/>
    </filter>
    <marker id="arrow" viewBox="0 0 10 10" refX="6" refY="5" markerWidth="6" markerHeight="6" orient="auto-start-reverse">
      <path d="M 0 1 L 10 5 L 0 9 z" fill="#38bdf8"/>
    </marker>
    <marker id="arrowGreen" viewBox="0 0 10 10" refX="6" refY="5" markerWidth="6" markerHeight="6" orient="auto-start-reverse">
      <path d="M 0 1 L 10 5 L 0 9 z" fill="#34d399"/>
    </marker>
  </defs>

  <rect width="100%" height="100%" fill="url(#bg)"/>
  
  <!-- Header Banner -->
  <rect x="0" y="0" width="1200" height="80" fill="#0f172a"/>
  <line x1="0" y1="80" x2="1200" y2="80" stroke="#06b6d4" stroke-width="3"/>
  
  <text x="30" y="38" fill="#38bdf8" font-family="system-ui, sans-serif" font-size="22" font-weight="800" letter-spacing="1">VELORA'S FLASH FORGE</text>
  <text x="30" y="62" fill="#94a3b8" font-family="system-ui, sans-serif" font-size="14" font-weight="600">DELIVERABLE 6: DEPLOYMENT DIAGRAM — AWS Kubernetes EKS Multi-AZ Production Infrastructure</text>
  <text x="960" y="48" fill="#34d399" font-family="monospace" font-size="12" font-weight="bold">SALESTORM SYS DESIGN 2026</text>

  <!-- Diagram Body -->
  <g transform="translate(0, 40)">
    
  <rect x="40" y="150" width="1120" height="440" rx="14" fill="#0f172a" stroke="#0284c7" stroke-width="2"/>
  <text x="60" y="180" fill="#38bdf8" font-family="sans-serif" font-size="15" font-weight="bold">AWS REGION (us-east-1) — KUBERNETES EKS CLUSTER</text>

  <!-- AZ A -->
  <rect x="70" y="210" width="510" height="350" rx="10" fill="#1e293b" stroke="#334155" stroke-dasharray="5 5"/>
  <text x="90" y="235" fill="#38bdf8" font-family="sans-serif" font-size="13" font-weight="bold">AVAILABILITY ZONE A (AZ-A)</text>
  <rect x="90" y="260" width="470" height="80" rx="6" fill="#0f172a" stroke="#38bdf8"/>
  <text x="110" y="295" fill="#38bdf8" font-family="monospace" font-size="12" font-weight="bold">Ingress Controller Pod (AWS ALB)</text>
  
  <rect x="90" y="360" width="220" height="80" rx="6" fill="#0f172a" stroke="#34d399"/>
  <text x="200" y="395" text-anchor="middle" fill="#34d399" font-family="monospace" font-size="12" font-weight="bold">Inventory Pod A</text>
  
  <rect x="340" y="360" width="220" height="80" rx="6" fill="#0f172a" stroke="#818cf8"/>
  <text x="450" y="395" text-anchor="middle" fill="#818cf8" font-family="monospace" font-size="12" font-weight="bold">Payment Pod A</text>

  <rect x="90" y="460" width="470" height="80" rx="6" fill="#0f172a" stroke="#f59e0b"/>
  <text x="325" y="495" text-anchor="middle" fill="#f59e0b" font-family="monospace" font-size="12" font-weight="bold">Redis Primary Node (Master)</text>

  <!-- AZ B -->
  <rect x="620" y="210" width="510" height="350" rx="10" fill="#1e293b" stroke="#334155" stroke-dasharray="5 5"/>
  <text x="640" y="235" fill="#38bdf8" font-family="sans-serif" font-size="13" font-weight="bold">AVAILABILITY ZONE B (AZ-B)</text>
  <rect x="640" y="260" width="470" height="80" rx="6" fill="#0f172a" stroke="#38bdf8"/>
  <text x="660" y="295" fill="#38bdf8" font-family="monospace" font-size="12" font-weight="bold">Ingress Controller Pod (AWS ALB)</text>

  <rect x="640" y="360" width="220" height="80" rx="6" fill="#0f172a" stroke="#34d399"/>
  <text x="750" y="395" text-anchor="middle" fill="#34d399" font-family="monospace" font-size="12" font-weight="bold">Inventory Pod B</text>

  <rect x="890" y="360" width="220" height="80" rx="6" fill="#0f172a" stroke="#818cf8"/>
  <text x="1000" y="395" text-anchor="middle" fill="#818cf8" font-family="monospace" font-size="12" font-weight="bold">Payment Pod B</text>

  <rect x="640" y="460" width="470" height="80" rx="6" fill="#0f172a" stroke="#34d399"/>
  <text x="875" y="495" text-anchor="middle" fill="#34d399" font-family="monospace" font-size="12" font-weight="bold">Supabase PostgreSQL Primary (Write/Read)</text>
  
  </g>

  <!-- Footer -->
  <rect x="0" y="610" width="1200" height="40" fill="#090d16"/>
  <line x1="0" y1="610" x2="1200" y2="610" stroke="#1e293b" stroke-width="1"/>
  <text x="30" y="635" fill="#64748b" font-family="monospace" font-size="12">Velora's Flash Forge © 2026 • Enterprise System Blueprint • Crisp Vector Architecture Diagram</text>
</svg>